<svg width="155" height="90" viewBox="0 0 155 90" fill="none" xmlns="http://www.w3.org/2000/svg">
<g clip-path="url(#clip0_8_2850)">
<path d="M154.96 76.5559C154.557 79.0079 154.025 81.4379 153.367 83.8349C152.69 86.0363 151.269 86.4248 148.906 85.958C147.501 85.6828 146.07 85.5727 144.64 85.6291C134.998 86.0072 125.362 86.6145 115.715 86.834C99.6315 87.2005 83.5478 87.2808 67.4642 87.5773C55.0437 87.8065 42.6254 88.1206 30.2089 88.5194C23.7819 88.726 17.3679 89.2193 10.9409 89.5405C9.3889 89.6078 7.83442 89.5942 6.2838 89.5004C1.95742 89.2647 0.273796 87.6971 0.228398 83.3305C0.153872 80.3398 0.404398 77.3497 0.975536 74.4134C6.63009 47.7116 19.3803 25.2986 43.3677 11.2716C67.6295 -2.91606 93.1105 -3.31319 118.455 9.14957C128.297 13.9889 135.91 21.5276 142.265 30.4188C149.847 41.0271 153.355 52.9351 154.112 65.796C154.297 68.889 154.596 71.975 154.96 76.5559ZM84.3948 68.6987C92.2817 62.6343 99.7366 56.8832 107.223 51.1711C108.11 50.5061 109.074 49.9514 110.095 49.5188C112.105 48.6506 113.853 49.0163 114.927 50.3883C115.458 51.1113 115.71 52.0018 115.637 52.8957C115.563 53.7896 115.169 54.6268 114.526 55.2535C113.313 56.5414 111.973 57.7043 110.528 58.7252C104.271 63.3146 97.9667 67.8395 91.6947 72.4081C91.1746 72.8316 90.685 73.2906 90.2297 73.7834C90.8932 76.0301 91.4775 78.0095 92.1961 80.4421L145.823 78.1655C146.27 74.3454 144.962 61.854 143.757 58.3136C142.122 58.9287 140.487 59.5484 138.85 60.1603C136.464 61.0512 134.115 62.0702 131.68 62.7843C130.715 63.091 129.672 63.0268 128.753 62.6045C127.834 62.182 127.106 61.4319 126.712 60.5014C125.947 58.7091 126.495 56.9448 128.334 55.5915C129.056 55.0781 129.829 54.6391 130.64 54.2811C133.155 53.124 135.695 52.0213 138.219 50.8837C139.492 50.3094 140.753 49.7052 142.151 49.0532C138.117 39.0172 132.715 30.2872 124.504 23.1539C122.632 25.7658 120.919 28.2127 119.14 30.6097C118.453 31.6117 117.644 32.5252 116.732 33.3293C114.989 34.7453 113.23 34.8185 111.834 33.7747C110.439 32.731 109.992 30.5626 111.052 28.6473C111.81 27.4272 112.7 26.2939 113.706 25.268C115.522 23.2343 117.394 21.2537 119.484 18.9927C107.551 11.6114 95.1767 8.02962 81.3091 8.22322C81.7663 12.0272 82.254 15.41 82.5413 18.8099C82.6652 20.3351 82.5705 21.8703 82.2605 23.3689C81.8584 25.3068 80.4336 26.3617 78.4724 26.5586C77.5204 26.6471 76.567 26.4034 75.7745 25.869C74.9826 25.3347 74.4003 24.5429 74.1272 23.6281C73.7459 22.3689 73.561 21.0586 73.5798 19.7432C73.5092 16.2358 73.5559 12.7264 73.5559 8.85898C59.4378 10.8604 47.3899 15.9911 36.6404 25.219C38.7008 27.0967 40.4668 28.5858 42.0881 30.2265C43.2044 31.2708 44.1504 32.4828 44.8918 33.8187C45.248 34.5252 45.3414 35.335 45.1551 36.1038C44.9689 36.8726 44.5151 37.5504 43.8748 38.0163C42.5869 39.0859 41.0615 39.4789 39.5621 38.542C38.4481 37.8323 37.4259 36.9885 36.5185 36.0292C34.7934 34.226 33.1818 32.314 31.4126 30.3223C24.3339 38.0782 18.5478 46.918 14.275 56.5046C15.5766 57.0291 16.6746 57.4921 17.7907 57.9168C19.8615 58.7061 21.9842 59.3753 23.9972 60.2889C25.1088 60.7612 26.0933 61.4886 26.8709 62.4116C28.3988 64.3955 27.426 66.8294 24.9402 67.0981C23.527 67.1719 22.1171 66.9019 20.8311 66.3127C17.8874 65.0825 15.0397 63.6165 11.9656 62.1577C9.28974 69.1105 7.27084 75.9032 6.80974 83.337C26.0498 82.301 44.9397 81.2864 63.8309 80.2744C67.1717 69.1202 76.6416 66.3179 84.3948 68.6987ZM83.7184 80.1798C83.0854 75.8825 81.3305 74.5085 77.4925 75.2758C76.0527 75.527 74.6876 76.0981 73.4988 76.947C72.31 77.7958 71.3275 78.9004 70.6245 80.1798H83.7184Z" fill="black"/>
</g>
<defs>
<clipPath id="clip0_8_2850">
<rect width="155" height="90" fill="white"/>
</clipPath>
</defs>
</svg>
